<?xml version="1.0" standalone="no"?>
<!DOCTYPE svg PUBLIC "-//W3C//DTD SVG 20010904//EN"
 "http://www.w3.org/TR/2001/REC-SVG-20010904/DTD/svg10.dtd">
<svg version="1.0" xmlns="http://www.w3.org/2000/svg"
 width="179.357762pt" height="83.917456pt" viewBox="0 0 179.357762 83.917456"
 preserveAspectRatio="xMidYMid meet">
<metadata>
Created by potrace 1.12, written by Peter Selinger 2001-2015
</metadata>
<g transform="translate(-10.221895,142.000000) scale(0.100000,-0.100000)"
fill="#000000" stroke="none">
<path d="M705 1413 c-56 -12 -114 -36 -128 -51 -13 -15 -12 -32 9 -165 13 -82
28 -157 34 -167 15 -27 50 -31 140 -16 146 26 210 86 210 196 -1 146 -119 236
-265 203z m66 -145 c0 -7 4 -35 8 -61 8 -50 -4 -78 -13 -30 -15 83 -16 103 -6
103 5 0 10 -6 11 -12z"/>
<path d="M1106 1407 c-24 -18 -79 -298 -65 -334 12 -31 47 -43 145 -50 105 -7
146 1 190 39 43 38 52 54 64 119 27 141 -77 239 -255 239 -35 0 -69 -6 -79
-13z m144 -197 c-6 -29 -12 -56 -15 -58 -13 -13 -14 9 -3 66 6 34 15 59 20 54
4 -4 4 -32 -2 -62z"/>
<path d="M230 1259 c-90 -41 -136 -110 -127 -192 19 -159 175 -249 311 -181
75 38 116 98 116 169 0 57 -18 100 -61 150 -64 73 -153 93 -239 54z m95 -174
c15 -24 25 -52 23 -62 -2 -12 -15 4 -36 45 -37 71 -26 85 13 17z"/>
<path d="M1585 1262 c-40 -25 -57 -60 -53 -107 3 -34 7 -40 34 -47 40 -10 84
-54 84 -84 0 -13 -4 -24 -10 -24 -5 0 -10 11 -10 24 0 32 -53 76 -92 76 -40 0
-88 -48 -88 -88 0 -56 124 -137 227 -148 59 -6 108 16 140 65 44 66 19 136
-66 181 -20 10 -30 19 -23 20 19 0 65 -25 86 -49 23 -25 48 -15 71 30 20 37
13 61 -28 95 -83 70 -207 95 -272 56z"/>
<path d="M715 951 c-22 -10 -48 -27 -57 -37 -44 -50 -60 -144 -37 -215 15 -45
65 -96 107 -110 50 -16 147 -7 180 18 86 63 104 189 43 289 -40 66 -155 93
-236 55z m95 -182 c0 -33 -4 -59 -10 -59 -6 0 -10 29 -10 66 0 41 4 63 10 59
6 -3 10 -33 10 -66z"/>
<path d="M1054 960 c-54 -12 -54 -10 -54 -179 0 -177 3 -186 74 -198 32 -5 96
11 96 25 0 3 -11 25 -25 49 -36 60 -18 53 25 -9 39 -57 72 -74 126 -63 25 4
38 13 44 31 13 33 13 275 0 308 -12 32 -66 48 -115 35 -46 -13 -49 -21 -25
-69 24 -48 13 -55 -13 -7 -39 71 -72 90 -133 77z"/>
</g>
</svg>
