<svg xmlns="http://www.w3.org/2000/svg" viewBox="0 0 212 221"><title>Oddson</title><g id="Layer_2" data-name="Layer 2"><path d="M32.43,33.87c5.15,3.36,21.37,15.52,29.57,21,4.29,2.86,8.11,7.15,19.08,3.33s29.79-9,39.58-12.4c.68-.23,2.39-.95,0-2.86s-22.19-15-29.57-20c-1.91-1.3-5.7-4-7.63-5.25-3.08-2-5.41-3.45-14.79-.47-9.77,3.1-10.89,3.45-14.54,4.53-5.86,1.72-19.87,5.75-23.37,7.15C28.37,29.82,26.94,30.29,32.43,33.87Zm41.49-2.39c4.29,0,7.82,2.06,8.83,4.06,1.43,2.86-1.67,5-6,5-4.07,0-8.11-1-10-3.82S69.13,31.48,73.92,31.48Z"/><path d="M61.76,59.86C53,54,36.78,41.33,27.89,36c-4.57-2.74-5.07.95-5.24,2.38-.51,4.19-2.39,16.69-2.39,16.69s-3.81,25.28-4.77,32,1.23,8.44,3.34,10c8,6,25.09,18.39,32.44,23.37,6.73,4.56,8.79,2.78,9.06,1,1.74-12.07,5.72-36.72,7.15-47.22S65,62,61.76,59.86Zm-30,29.58c-.48,4.77-2.38,7.15-5.72,5.24a10.78,10.78,0,0,1-5.25-10c.48-3.82,3.34-6.2,6.68-3.82C27.42,80.85,32.19,84.67,31.71,89.44ZM46.5,80.85C46,85.62,44.11,88,40.77,86.1a10.78,10.78,0,0,1-5.24-10c.47-3.81,3.33-6.2,6.67-3.81C42.2,72.27,47,76.08,46.5,80.85Zm14.78-8.58c-.47,4.76-2.38,7.15-5.72,5.24a10.78,10.78,0,0,1-5.25-10c.48-3.82,3.34-6.2,6.68-3.82C57,63.68,61.76,67.5,61.28,72.27Z"/><path d="M92.28,115.19c1.91-3.34,7.13-16.66,11-20.51,2.87-2.86,14.31-3.81,15.27-3.81s.88-1,1-1.43c1.53-9.44,4.29-30.53,4.77-35.78s-.48-4.29-3.34-3.34C110.6,53.76,87,61.3,79.41,63.2S71.53,71.6,71,75c-1.78,11.35-6.1,37-7,43-.75,5-.26,5.37,1,6,2,1,12.5-2.13,18.7-4S90.38,118.53,92.28,115.19Zm13.84-50.56c.95-.95,5.24-5.72,9.06-2.38s-1,9.06-2.39,10.49-6.2,3.82-8.58,1S104.48,66.27,106.12,64.63ZM74.64,112.81c-2.39-2.86.27-7.43,1.9-9.07,1-.95,5.25-5.72,9.07-2.38s-1,9.06-2.39,10.49S77,115.67,74.64,112.81Z"/><path d="M111.84,98.5s22.89,28.14,27.19,33.86,7.56,5.36,10.49,5.25c10.72-.41,37.68,0,42.93,0s2.55-2.61,2.38-2.86c-5.65-8.5-17.17-21.47-24.32-31s-8.25-8.53-11.93-8.58c-10.58-.16-44.35,0-44.35,0C108.5,95.16,111.84,98.5,111.84,98.5ZM170,124.25c.95-3.81,5.84-2.17,7.63-1.43s5.3,2.52,6.2,4.77-.47,4.3-3.81,4.3S169.08,128.07,170,124.25Zm-18.12-21.94c1-3.81,5.83-2.17,7.63-1.43s5.29,2.51,6.2,4.77-.48,4.3-3.82,4.3S151,106.13,151.91,102.31Zm-10.5,21.47c1-3.82,5.84-2.18,7.63-1.43s5.3,2.51,6.2,4.77-.47,4.29-3.81,4.29S140.46,127.59,141.41,123.78Zm-18.12-21.94c.95-3.82,5.84-2.18,7.63-1.43s5.3,2.51,6.2,4.77-.48,4.29-3.82,4.29S122.33,105.65,123.29,101.84Z"/><path d="M194.83,142.38c-10.83-.38-43.4,0-43.4,0-9.06,0-11.93,7.15-11.93,7.15s-14.64,31.77-19.07,40.07c-3.43,6.4-1.45,7.53,0,7.63,11.57.77,38.15,0,44.83,0s8.59-5.25,8.59-5.25,19.55-40.54,21.94-45.31S195.93,142.42,194.83,142.38Zm-54.37,45.79c-6.92,6.92-11,1.91-11-.48,0-2.9,3.81-8.58,10-8.58C141.78,179.11,146.18,182.44,140.46,188.17Zm7.15-15.27c-6.92,6.93-11,1.91-11-.47,0-2.9,3.82-8.59,10-8.59C148.94,163.84,153.34,167.18,147.61,172.9Zm-3.34-15.73c0-2.91,3.82-8.59,10-8.59,2.28,0,6.68,3.34,1,9.06C148.32,164.56,144.27,159.55,144.27,157.17Zm24.33,31.47c-6.92,6.92-11,1.91-11-.47,0-2.9,3.81-8.59,10-8.59C169.92,179.58,174.32,182.92,168.6,188.64Zm7.63-15.74c-6.92,6.93-11,1.91-11-.47,0-2.9,3.82-8.59,10-8.59C177.55,163.84,182,167.18,176.23,172.9Zm7.16-15.26c-6.93,6.92-11,1.91-11-.47,0-2.91,3.82-8.59,10-8.59C184.71,148.58,189.11,151.92,183.39,157.64Z"/><path d="M135.69,135.22,109,100.88c-3.34-4.29-5.25-.47-7.16,3.34-5,10.07-16.21,33.39-19.55,40.54s-2.16,9.13-.48,11.45c6.47,8.95,23.85,30.53,27.19,34.82s5.25.95,5.25.95,18.6-37.68,21.94-44.83S135.69,135.22,135.69,135.22ZM97.05,150.49c-.32,2.06-.47,7.15-4.29,7.15S87,152.4,87,150c0-1.91.48-8.58,4.77-8.58S97.36,148.54,97.05,150.49Zm9.54-39.59c4.3,0,5.56,7.12,5.25,9.06s-.48,7.16-4.29,7.16-5.73-5.25-5.73-7.64C101.82,117.58,102.3,110.9,106.59,110.9Zm1.91,26.71c4.29,0,5.55,7.12,5.25,9.06s-.48,7.16-4.29,7.16-5.73-5.25-5.73-7.64C103.73,144.29,104.21,137.61,108.5,137.61Zm6.68,35.77c-.32,2.06-.48,7.16-4.29,7.16s-5.73-5.25-5.73-7.64.48-8.58,4.77-8.58S115.48,171.44,115.18,173.38Zm15.26-30c-.32,2.06-.48,7.16-4.29,7.16s-5.72-5.25-5.72-7.63.47-8.59,4.77-8.59S130.75,141.39,130.44,143.33Z"/></g></svg>