<svg xmlns="http://www.w3.org/2000/svg" viewBox="0 0 500 534"><defs><style>.cls-1{font-size:108px;font-family:TitanOne, Titan One;}</style></defs><title>Oddson</title><g id="Layer_1" data-name="Layer 1"><text class="cls-1" transform="translate(94.91 353.05)">ODDS<tspan x="74.63" y="110">ON</tspan></text></g><g id="Layer_2" data-name="Layer 2"><path d="M176.43,63.87c5.15,3.36,21.37,15.52,29.57,21,4.29,2.86,8.11,7.15,19.08,3.33s29.79-9,39.58-12.4c.68-.23,2.39-1,0-2.86s-22.19-15-29.57-20c-1.91-1.3-5.7-4-7.63-5.25-3.08-2-5.41-3.45-14.79-.47-9.77,3.1-10.89,3.45-14.54,4.53-5.86,1.72-19.87,5.75-23.37,7.15C172.37,59.82,170.94,60.29,176.43,63.87Zm41.49-2.39c4.29,0,7.82,2.06,8.83,4.06,1.43,2.86-1.67,5-6,5-4.07,0-8.11-1-10-3.82S213.13,61.48,217.92,61.48Z"/><path d="M205.76,89.86C197,84,180.78,71.33,171.89,66c-4.57-2.74-5.07,1-5.24,2.38-.51,4.19-2.39,16.69-2.39,16.69s-3.81,25.28-4.77,32,1.23,8.44,3.34,10c8,6,25.09,18.39,32.44,23.37,6.73,4.56,8.79,2.78,9.06.95,1.74-12.07,5.72-36.72,7.15-47.22S209,92,205.76,89.86Zm-30,29.58c-.48,4.77-2.38,7.15-5.72,5.24a10.78,10.78,0,0,1-5.25-10c.48-3.82,3.34-6.2,6.68-3.82C171.42,110.85,176.19,114.67,175.71,119.44Zm14.79-8.59c-.48,4.77-2.39,7.16-5.73,5.25a10.78,10.78,0,0,1-5.24-10c.47-3.81,3.33-6.2,6.67-3.81C186.2,102.27,191,106.08,190.5,110.85Zm14.78-8.58c-.47,4.76-2.38,7.15-5.72,5.24a10.78,10.78,0,0,1-5.25-10c.48-3.82,3.34-6.2,6.68-3.82C201,93.68,205.76,97.5,205.28,102.27Z"/><path d="M236.28,145.19c1.91-3.34,7.13-16.66,11-20.51,2.87-2.86,14.31-3.81,15.27-3.81s.88-1,1-1.43c1.53-9.44,4.29-30.53,4.77-35.78s-.48-4.29-3.34-3.34c-10.3,3.44-33.86,11-41.49,12.88s-7.88,8.4-8.41,11.8c-1.78,11.35-6.1,36.95-7,43-.75,5-.26,5.37,1,6,2,1,12.5-2.13,18.7-4S234.38,148.53,236.28,145.19Zm13.84-50.56c.95-.95,5.24-5.72,9.06-2.38s-.95,9.06-2.39,10.49-6.2,3.82-8.58,1S248.48,96.27,250.12,94.63Zm-31.48,48.18c-2.39-2.86.27-7.43,1.9-9.07,1-1,5.25-5.72,9.07-2.38s-1,9.06-2.39,10.49S221,145.67,218.64,142.81Z"/><path d="M255.84,128.5s22.89,28.14,27.19,33.86,7.56,5.36,10.49,5.25c10.72-.41,37.68,0,42.93,0s2.55-2.61,2.38-2.86c-5.65-8.5-17.17-21.47-24.32-31s-8.25-8.53-11.93-8.58c-10.58-.16-44.35,0-44.35,0C252.5,125.16,255.84,128.5,255.84,128.5ZM314,154.25c1-3.81,5.84-2.17,7.63-1.43s5.3,2.52,6.2,4.77-.47,4.3-3.81,4.3S313.08,158.07,314,154.25Zm-18.12-21.94c.95-3.81,5.83-2.17,7.63-1.43s5.29,2.51,6.2,4.77-.48,4.3-3.82,4.3S295,136.13,295.91,132.31Zm-10.5,21.47c1-3.82,5.84-2.18,7.63-1.43s5.3,2.51,6.2,4.77-.47,4.29-3.81,4.29S284.46,157.59,285.41,153.78Zm-18.12-21.94c.95-3.82,5.84-2.18,7.63-1.43s5.3,2.51,6.2,4.77-.48,4.29-3.82,4.29S266.33,135.65,267.29,131.84Z"/><path d="M338.83,172.38c-10.83-.38-43.4,0-43.4,0-9.06,0-11.93,7.15-11.93,7.15s-14.64,31.77-19.07,40.07c-3.43,6.4-1.45,7.53,0,7.63,11.57.77,38.15,0,44.83,0s8.59-5.25,8.59-5.25,19.55-40.54,21.94-45.31S339.93,172.42,338.83,172.38Zm-54.37,45.79c-6.92,6.92-11,1.91-11-.48,0-2.9,3.81-8.58,10-8.58C285.78,209.11,290.18,212.44,284.46,218.17Zm7.15-15.27c-6.92,6.93-11,1.91-11-.47,0-2.9,3.82-8.59,10-8.59C292.94,193.84,297.34,197.18,291.61,202.9Zm-3.34-15.73c0-2.91,3.82-8.59,10-8.59,2.28,0,6.68,3.34.95,9.06C292.32,194.56,288.27,189.55,288.27,187.17Zm24.33,31.47c-6.92,6.92-11,1.91-11-.47,0-2.9,3.81-8.59,10-8.59C313.92,209.58,318.32,212.92,312.6,218.64Zm7.63-15.74c-6.92,6.93-11,1.91-11-.47,0-2.9,3.82-8.59,10-8.59C321.55,193.84,326,197.18,320.23,202.9Zm7.16-15.26c-6.93,6.92-11,1.91-11-.47,0-2.91,3.82-8.59,10-8.59C328.71,178.58,333.11,181.92,327.39,187.64Z"/><path d="M279.69,165.22,253,130.88c-3.34-4.29-5.25-.47-7.16,3.34-5,10.07-16.21,33.39-19.55,40.54s-2.16,9.13-.48,11.45c6.47,8.95,23.85,30.53,27.19,34.82s5.25.95,5.25.95,18.6-37.68,21.94-44.83S279.69,165.22,279.69,165.22Zm-38.64,15.27c-.32,2.06-.47,7.15-4.29,7.15S231,182.4,231,180c0-1.91.48-8.58,4.77-8.58S241.36,178.54,241.05,180.49Zm9.54-39.59c4.3,0,5.56,7.12,5.25,9.06s-.48,7.16-4.29,7.16-5.73-5.25-5.73-7.64C245.82,147.58,246.3,140.9,250.59,140.9Zm1.91,26.71c4.29,0,5.55,7.12,5.25,9.06s-.48,7.16-4.29,7.16-5.73-5.25-5.73-7.64C247.73,174.29,248.21,167.61,252.5,167.61Zm6.68,35.77c-.32,2.06-.48,7.16-4.29,7.16s-5.73-5.25-5.73-7.64.48-8.58,4.77-8.58S259.48,201.44,259.18,203.38Zm15.26-30c-.32,2.06-.48,7.16-4.29,7.16s-5.72-5.25-5.72-7.63.47-8.59,4.77-8.59S274.75,171.39,274.44,173.33Z"/></g></svg>